<?xml version="1.0" encoding="utf-8" ?>
<svg xmlns="http://www.w3.org/2000/svg" xmlns:xlink="http://www.w3.org/1999/xlink" width="3194" height="757">
	<path d="M1318.9 207.264Q1281.53 191.389 1244.65 191.389Q1169.9 191.389 1169.9 246.764Q1169.9 270.764 1186.78 291.514Q1203.78 312.264 1227.78 328.389Q1251.9 344.514 1275.9 361.389Q1300.03 378.264 1316.9 401.889Q1333.78 425.389 1333.78 453.014Q1333.78 499.639 1302.53 523.514Q1271.28 547.264 1216.28 547.264Q1161.28 547.264 1122.28 519.139L1134.65 500.639Q1171.53 524.764 1215.53 524.764Q1259.53 524.764 1283.03 507.139Q1306.65 489.389 1306.65 456.139Q1306.65 433.139 1289.78 412.389Q1272.9 391.639 1248.78 375.014Q1224.78 358.389 1200.65 341.014Q1176.65 323.514 1159.65 299.514Q1142.78 275.389 1142.78 247.764Q1142.78 211.389 1169.65 190.139Q1196.53 168.889 1242.4 168.889Q1288.28 168.889 1327.65 187.389L1318.9 207.264ZM1581.59 546.264Q1510.46 546.264 1462.34 496.639Q1414.21 446.889 1414.21 375.014Q1414.21 303.014 1462.34 253.389Q1510.46 203.764 1581.59 203.764Q1652.71 203.764 1700.84 253.389Q1748.96 303.014 1748.96 375.014Q1748.96 446.889 1700.84 496.639Q1652.71 546.264 1581.59 546.264ZM1581.84 224.764Q1520.21 224.764 1479.46 268.264Q1438.71 311.764 1438.71 375.014Q1438.71 438.264 1479.46 481.514Q1520.21 524.764 1581.84 524.764Q1643.59 524.764 1683.96 481.514Q1724.46 438.264 1724.46 375.014Q1724.46 311.764 1683.96 268.264Q1643.59 224.764 1581.84 224.764ZM1851.48 541.139L1851.48 208.889L1874.98 208.889L1874.98 519.639L2027.61 519.639L2027.61 541.139L1851.48 541.139ZM2113.62 425.889L2065.99 541.139L2041.86 541.139L2181.12 206.764L2194.99 206.764L2335.24 541.139L2309.12 541.139L2260.99 425.889L2113.62 425.889ZM2186.74 244.639Q2179.12 267.764 2172.99 283.139L2121.74 406.014L2252.87 406.014L2202.12 283.639Q2190.37 254.889 2186.74 244.639ZM2402.9 541.139L2402.9 210.389Q2446.9 206.764 2477.65 206.764Q2524.65 206.764 2555.4 231.139Q2586.15 255.389 2586.15 300.514Q2586.15 330.764 2568.65 356.389Q2551.28 381.889 2529.28 397.764Q2590.28 478.639 2604.53 494.514Q2633.78 524.764 2668.03 528.889L2667.53 544.764Q2638.9 544.264 2620.9 536.389Q2603.03 528.389 2585.28 509.389Q2567.65 490.389 2507.78 407.514Q2466.28 407.514 2426.4 404.889L2426.4 541.139L2402.9 541.139ZM2495.03 388.014Q2515.03 388.014 2538.03 361.389Q2561.03 334.764 2561.03 299.514Q2561.03 264.139 2536.9 245.764Q2512.9 227.264 2474.53 227.264Q2454.03 227.264 2426.4 229.389L2426.4 385.514Q2463.28 388.014 2495.03 388.014ZM2714.2 541.139L2714.2 208.889L2737.7 208.889L2737.7 541.139L2714.2 541.139ZM2860.63 541.139L2860.63 208.889L2884.13 208.889L2884.13 541.139L2860.63 541.139ZM3074.06 223.139Q3046.44 223.139 3028.94 236.514Q3011.56 249.764 3011.56 273.889Q3011.56 301.514 3034.69 323.514Q3051.06 339.389 3076.81 357.139Q3102.69 374.764 3112.44 382.514Q3122.19 390.139 3136.06 403.389Q3161.06 428.514 3161.06 461.264Q3161.06 503.764 3132.69 525.514Q3104.31 547.264 3053.31 547.264Q3002.44 547.264 2968.06 520.639L2980.44 502.764Q3015.19 526.264 3054.06 526.264Q3093.06 526.264 3114.81 509.889Q3136.56 493.514 3136.56 463.889Q3136.56 438.264 3114.56 416.764Q3099.19 401.389 3073.31 383.514Q3047.44 365.514 3037.19 357.639Q3026.94 349.639 3013.19 336.389Q2987.06 310.264 2987.06 276.014Q2987.06 241.639 3011.31 222.264Q3035.69 202.764 3078.69 202.764Q3121.69 202.764 3155.94 219.639L3147.31 238.514Q3115.56 223.139 3074.06 223.139Z"/>
	<path d="M424.592 0.399104C369.082 6.26119 375.534 78.0469 408.516 101.685C398.822 100.045 352.265 84.2789 338.05 84.1887C274.478 41.4638 359.158 25.9982 321.664 43.9246C312.151 62.4512 338.441 81.2077 356.037 66.6427C390.059 -30.782 222.809 16.4548 317.023 108.158C202.292 128.614 220.438 33.0607 250.77 69.5137C221.379 63.9917 233.063 97.1238 260.102 92.382C328.227 9.39231 140.21 29.4494 226.16 114.84C268.056 144.471 323.245 105.226 370.382 123.333C387.628 127.964 426.942 159.286 399.322 168.459C362.059 106.687 284.811 131.076 229.052 150.082C169.34 177.222 133.728 111.879 173.162 114.129C178.874 116.831 172.772 129.375 181.215 124.243C184.636 80.9178 125.935 119.441 158.447 150.122C181.275 179.443 273.067 139.018 216.177 169.089C148.483 201.961 87.8215 79.8477 177.373 90.3313C204.233 97.4433 200.541 146.731 173.542 132.866C164.219 118.781 161.327 152.403 189.767 141.539C223.29 125.074 195.32 79.0771 166.499 76.7165C90.8023 84.1887 111.84 188.096 197.18 185.515C177.343 208.413 110.48 241.995 94.9339 198.52C104.567 183.474 97.7645 198.14 106.348 204.562C167.58 223.069 139.74 134.617 90.5922 156.274C20.9674 204.492 108.988 291.563 170.581 253.329C173.572 250.658 187.197 243.446 188.387 247.197C181.684 264.733 180.314 252.029 167.98 260.542C134.628 267.634 14.395 337.149 44.5758 254.68C59.141 248.978 30.6409 265.393 46.3264 278.258C125.655 294.233 43.9756 189.067 10.1736 253.359C-5.40198 297.335 37.4433 336.739 80.4385 328.626C70.8452 353.575 78.6079 390.448 46.5165 400.261C-6.53239 416.478 14.4651 305.448 43.6255 367.46C32.7116 344.251 6.98242 380.605 36.0327 385.526C77.3076 373.772 33.4819 306.828 6.18214 353.515C-7.27266 376.523 1.95063 401.222 26.5694 414.107C-15.0454 424 4.51154 473.698 37.4133 478.719C-14.4252 521.955 72.0156 569.102 105.767 527.257C114.851 515.753 111.309 519.874 113.15 529.698C115.401 541.692 121.803 552.075 119.102 564.68C95.7741 531.508 50.0677 564.84 64.833 596.321C81.349 632.904 137.459 624.331 145.191 586.497C154.345 598.922 166.299 603.013 178.494 609.236C271.797 706.34 65.5633 696.587 150.884 619.69C188.857 612.387 196.96 661.294 160.187 661.815C148.023 658.964 147.022 639.136 160.497 642.007C174.722 668.457 172.702 614.388 148.133 638.886C130.786 708.702 240.676 648.38 167.259 611.556C77.8875 602.314 139.71 736.661 196.89 680.431C193.699 772.187 327.306 793.219 319.073 679.771C421.04 716.844 450.96 620.39 478.5 650.181C518.395 674.109 615.739 696.727 609.027 628.163C598.293 609.496 606.066 598.652 618.68 584.037C613.328 560.519 610.738 562.339 618.68 537.811C602.104 514.672 597.663 542.122 587.489 538.931C573.434 534.519 585.679 529.968 561.1 529.798C527.338 568.051 526.247 534.56 516.114 553.976C516.654 561.189 523.716 564.7 525.587 555.427C542.903 568.492 563.251 608.326 591.111 598.072C622.242 670.418 563.231 669.287 509.461 650.661C429.213 621.03 509.051 592.22 463.415 527.297C457.593 517.383 438.776 494.826 424.581 490.694C383.196 472.368 448.639 466.425 436.375 399.691C494.826 403.063 453.281 403.092 500.598 426.121C525.447 443.317 603.655 419.698 578.206 382.936C619.981 392.418 618.25 415.377 621.652 452.1C617.99 470.286 630.124 497.686 613.928 509.08C606.246 504.989 599.834 497.796 590.33 503.008C564.451 525.446 571.674 473.398 594.962 482.231C602.304 481.91 600.964 476.879 594.902 475.278C553.647 464.415 552.637 515.713 581.387 521.375C586.609 522.405 589.95 519.784 594.272 518.104C600.974 526.926 608.107 516.013 613.629 525.516C681.402 543.462 635.896 483.611 670.929 481.15C694.187 483.411 728.889 501.688 707.702 530.978C706.742 533.018 699.209 536.35 698.999 532.488C720.196 449.899 606.416 551.096 701.65 562.729C743.335 552.466 743.616 502.668 718.846 476.388C752.618 487.432 792.595 532.318 832.543 502.438C858.785 487.952 874.022 454.481 864.177 430.132C908.496 444.267 942.756 382.265 902.194 355.966C1020.15 327.185 908.651 213.645 826.027 286.201C853.046 136.178 983.429 204.632 914.746 234.122C904.761 226.6 921.351 220.638 911.928 217.096C879.184 230.141 922.017 253.67 937.594 235.382C957.941 144.741 828.527 189.576 826.101 254.24C817.462 292.483 790.938 328.336 754.8 350.063C825.797 286.081 799.548 229.391 856.522 184.055C942.054 116.33 988.414 281.119 899.561 241.745C885.442 226.709 901.174 196.599 918.918 214.325C922.912 219.307 916.1 224.499 919.62 228.18C926.913 230.161 927.608 223.838 929.339 219.697C911.351 170.35 862.106 229.341 899.621 253.559C977.978 280.548 971.277 164.137 903.37 161.566C811.7 126.654 780.798 410.775 750.295 283.87C730.97 265.904 717.685 208.893 758.513 220.837C724.178 230.311 751.508 277.448 783.927 249.658C810.036 228.69 777.418 178.502 740.606 189.027C681.093 204.352 717.625 287.951 675.23 150.352C676.761 61.3507 757.129 139.248 710.543 132.866C718.756 120.832 707.522 118.301 695.058 120.002C673.6 138.728 697.879 172.68 725.889 163.787C801.175 102.896 665.417 29.5294 640.788 142.69C620.941 119.801 577.066 92.0418 602.215 59.7902C630.964 45.255 593.741 69.8237 607.136 88.3907C622.271 97.7635 619.621 99.4844 640.018 94.2722C700.87 -0.581338 514.123 6.02102 582.918 128.505C569.733 124.884 521.916 91.0612 515.744 82.5684C496.597 64.1217 502.919 15.0842 536.761 36.5819C537.752 44.8549 537.621 41.9138 531.719 39.0828C507.641 29.3093 508.371 58.9998 520.205 71.5544C554.267 95.2225 581.597 41.1836 552.887 18.8756C493.986 -33.7632 451.821 59.3 496.017 104.316C375.733 110.518 402.923 -19.1279 439.736 42.3539C424.291 5.78093 404.444 74.8758 449.45 63.5315C492.605 46.0853 455.292 -4.82285 424.591 0.399015L424.592 0.399104ZM549.496 265.974C702.771 248.048 628.174 664.776 635.076 455.351C642.409 231.722 469.897 440.126 412.217 352.995C517.134 376.293 446.409 253.159 549.496 265.974ZM305.589 330.076C324.085 335.198 336.86 341.661 308.119 342.731C233.924 365.649 260.183 469.336 329.597 476.308C382.056 487.763 453.182 496.666 463.145 558.508C489.615 663.786 314.612 694.796 308.06 582.926C307.299 560.618 323.886 531.188 349.794 530.588C252.58 609.556 434.555 706.981 451.411 584.397C452.151 569.622 451.631 532.889 436.265 531.608C449.49 553.326 451.921 582.347 439.247 605.855C349.115 725.187 269.576 496.026 390.899 545.393C427.442 581.816 350.675 619.509 365.66 571.112C374.393 571.362 385.758 573.343 384.907 561.789C383.066 557.147 354.136 547.514 347.814 574.544C346.473 653.252 465.936 603.454 417.458 537.68C367.111 467.816 297.306 510.151 261.704 438.045C234.854 395.43 252.64 333.858 305.579 330.076L305.589 330.076ZM181.675 431.743C270.746 442.487 270.036 602.984 171.921 565.28C100.736 505.329 229.372 464.104 189.988 537.201C222.689 543.313 199.901 473.528 162.718 495.115C110.119 542.323 183.386 595.011 232.313 599.252C322.205 631.614 333.239 789.381 231.863 739.042C264.624 720.516 246.708 763.948 288.383 729.949C315.322 687.174 277.339 627.482 235.904 610.977C267.225 636.465 324.235 698.478 268.095 731.109C255.641 733.3 271.476 711.303 272.517 709.122C301.527 619.109 165.119 615.778 135.618 554.587C100.306 498.687 187.837 441.856 219.188 498.937C247.078 580.586 138.859 549.625 185.856 522.005C183.065 506.699 164.969 522.435 163.569 531.758C172.441 569.582 223.2 565.63 236.414 530.898C259.873 465.765 146.402 407.304 119.073 485.982C122.984 452.46 146.332 429.382 181.664 431.743L181.675 431.743ZM307.129 156.885C377.514 156.475 376.014 220.287 362.849 199.25C304.239 139.469 220.748 208.763 167.99 240.875C25.0389 287.311 92.4428 89.7108 135.258 190.307C127.456 208.734 97.0448 200.39 112.06 184.455C118.502 190.657 119.732 185.235 118.832 180.063C104.937 167.798 88.6019 189.566 88.4813 197.63C130.337 289.922 238.955 142.91 307.129 156.885L307.129 156.885ZM410.666 231.471C498.918 227.3 491.185 376.553 410.666 336.969C397.931 333.628 397.522 308.259 404.944 303.477C397.832 352.555 462.915 337.759 460.424 294.384C448.96 226.71 354.856 251.348 362.049 311.96C359.228 364.529 446.159 412.406 377.294 458.352C364.04 464.994 349.464 465.445 373.113 456.131C446.469 394.94 242.426 281.029 410.676 231.471L410.666 231.471ZM414.498 257.281C447.009 261.352 471.038 316.842 430.513 326.695C399.383 328.496 412.857 284.83 430.053 304.148C393.63 317.202 471.368 316.342 422.09 287.692C315.642 306.618 477.4 402.882 413.717 458.422C400.623 485.182 342.242 473.168 378.355 465.825C476.08 408.994 283.341 292.483 414.487 257.281L414.498 257.281ZM293.524 298.756C301.067 300.566 308.82 298.626 315.242 303.898C323.806 310.91 305.919 306.468 304.208 311.14C353.066 334.378 275.858 308.449 255.261 352.154C199.061 478.279 343.993 480.94 407.395 532.368C426.422 552.026 421.01 605.375 414.507 561.759C393.22 498.236 299.336 525.597 263.534 472.107C219.078 423.63 213.176 311.85 293.524 298.745L293.524 298.756ZM158.327 386.047C168.25 386.047 198.431 397.01 203.623 411.166C202.602 411.106 178.883 402.072 177.473 401.272C76.5576 374.463 74.6264 631.394 104.807 468.116C106.538 420.549 173.372 383.766 209.655 427.221C83.8401 377.994 143.081 572.043 41.975 527.147C21.0175 515.072 29.4205 481.22 53.329 486.052C68.8045 493.445 67.284 516.413 50.458 510.131C47.9271 508.79 49.1275 504.489 47.5669 502.288C49.6377 493.105 59.4112 508.02 62.2522 502.458C53.9892 481.521 39.6841 499.777 41.5748 507.31C62.3822 545.923 95.8444 489.224 57.8006 476.799C118.222 468.406 93.2934 387.157 158.316 386.036L158.327 386.047ZM901.373 271.876C999.353 290.392 888.297 402.612 883.304 313.221C904.976 289.422 920.53 337.819 897.956 314.651C883.267 313.1 893.637 338.57 906.351 339.08C925.693 336.769 939.517 316.732 929.82 300.506C846.1 209.293 805.346 425.901 677.712 403.973C665.457 398.621 647.921 401.232 653.223 378.924C763.483 441.526 802.477 264.523 901.381 271.876L901.373 271.876ZM526.768 11.1329C566.182 15.9846 563.211 89.5806 521.446 61.931C511.652 52.4476 526.517 34.6213 528.118 55.0485C563.541 62.2111 534.63 -1.12144 502.809 31.5702C464.936 121.372 701.18 172.801 615.229 263.083C620.481 256.971 629.034 230.651 620.651 228.25C614.549 238.874 616.269 260.592 602.065 264.453C639.108 202.391 580.997 151.663 526.127 120.372C490.455 94.7825 463.415 13.2036 526.767 11.1429L526.768 11.1329ZM618.67 36.592C674.21 51.8874 621.902 125.684 612.488 69.6238C615.399 63.1315 624.462 56.4691 625.322 67.3729C616.499 68.8835 617.09 74.6554 622.012 79.4269C652.293 81.0679 624.342 33.4209 600.564 52.6577C539.422 104.646 740.303 220.267 630.115 281.429C617.91 280.319 636.807 267.124 638.947 261.472C690.416 183.024 498.838 79.2775 618.67 36.602L618.67 36.592ZM860.509 352.644C962.63 357.926 876.056 480.65 859.377 388.648C873.829 353.405 912.586 405.073 877.069 397.66C875.812 391.558 892.52 399.801 880.73 386.056C862.979 381.725 863.541 406.384 881.167 409.685C921.196 408.145 886.854 359.337 859.384 360.517C790.31 353.905 776.819 452.451 695.058 423.99C668.008 415.327 756.471 416.237 780.199 385.906C802.336 365.629 826.833 348.413 860.516 352.635L860.509 352.644ZM819.022 397.821C894.236 409.635 849.924 524.196 783.949 499.297C751.427 486.683 746.042 470.607 708.402 458.372C667.158 455.812 733.101 454.531 744.755 462.664C886.736 561.859 842.779 336.029 805.406 429.172C802.869 435.504 811.552 427.832 817.891 438.025C805.028 476.639 763.453 412.256 819.022 397.83L819.022 397.821ZM162.017 319.482C203.102 343.511 143.211 327.786 138.209 340.89C148.723 341.52 179.534 332.398 179.434 352.635C103.527 334.158 95.3437 430.452 64.583 463.975C43.1654 472.757 3.72132 462.494 12.5945 433.533C16.696 419.289 47.697 422.319 37.6634 435.074C7.8028 411.396 10.3837 465.405 41.4248 462.604C89.9221 463.574 69.2646 329.176 162.017 319.473L162.017 319.482ZM325.556 360.517C366.481 368.09 405.144 427.852 356.127 453.351C322.915 455.331 311.601 422.75 334.749 424.19C321.405 444.577 358.898 454.29 366.24 434.824C390.869 373.162 284.221 371.911 293.535 434.824C262.063 410.695 280.28 354.065 325.556 360.497L325.556 360.517ZM213.756 625.332C334.869 665.096 206.824 795.134 205.923 683.133C216.867 662.525 250.659 669.757 246.498 695.157C234.273 712.443 212.555 693.946 236.264 688.984C232.003 664.106 200.022 706.461 231.172 712.233C287.332 706.951 242.166 635.505 201.992 673.249C210.595 660.414 205.683 631.854 213.766 625.342L213.756 625.332ZM300.327 263.433C303.518 265.063 329.567 264.173 321.825 275.747C314.972 283.2 291.624 265.744 283.961 280.439C321.514 280.609 326.496 298.135 293.864 291.283C218.148 297.825 215.927 391.618 238.625 443.637C188.827 387.077 214.246 272.986 300.317 263.433L300.327 263.433ZM297.686 207.403C309.31 209.143 353.176 212.314 343.752 230.521C338.3 231.831 338.26 223.429 333.739 223.168C330.618 226.68 338.271 232.332 336.019 235.813C272.047 199.61 214.166 258.371 205.393 318.202C197.35 455.541 157.166 213.285 297.686 207.413L297.686 207.403ZM695.058 90.9813C776.316 91.4117 724.308 204.652 695.157 136.408C703.7 112.069 702.84 133.497 708.082 144.88C779.37 134.937 678.351 52.3176 665.067 131.646C667.008 190.627 714.554 286.081 648.071 292.533C724.578 241.775 596.133 116.491 695.058 90.9917L695.058 90.9813ZM300.327 521.205C325.576 530.888 315.693 523.356 304.668 539.711C242.166 631.053 363.91 669.307 396.401 666.066C315.573 702.95 221.899 578.675 300.327 521.215L300.327 521.205ZM752.255 198.54C791.722 205.352 785.273 251.308 754.718 245.416C752.019 241.425 747.603 229.61 757.647 230.951C765.931 262.023 786.19 216.036 762.181 208.524C715.935 194.428 709.083 252.239 726.278 281.739C752.958 348.883 679.883 379.614 642.649 328.636C632.796 296.785 651.232 322.854 662.376 336.339C770.495 374.972 660.155 205.722 752.248 198.54L752.255 198.54ZM516.114 141.99C578.676 139.439 638.067 220.428 585.058 257.331C579.246 254.64 588.82 246.977 590.33 243.105C591.571 233.072 587.349 189.106 575.025 188.456C584.178 203.141 583.808 230.661 575.765 246.437C574.395 245.087 584.228 215.255 574.035 213.435C565.921 274.967 582.977 174.131 516.104 141.99L516.114 141.99ZM890.249 288.802C949.028 280.269 916.906 361.938 897.653 321.884C927.312 340.46 915.464 291.633 890.234 298.765C866.5 307.538 884.184 346.673 872.683 342.231C852.395 337.279 818.645 349.574 815.339 348.713C828.312 332.668 861.366 283.23 890.234 288.802L890.249 288.802ZM46.9868 240.895C59.031 241.575 63.2525 246.037 65.8835 254.37C9.13326 215.206 14.2951 358.076 129.076 279.268C136.109 275.377 191.758 252.139 178.724 274.737C138.72 276.667 112.96 312.651 69.7848 315.911C26.7695 323.274 -8.78312 244.276 46.9968 240.895L46.9868 240.895ZM416.598 205.862C444.748 207.603 495.577 229.771 484.302 261.312C476.209 254.289 477.84 237.583 465.606 233.622C450.43 230.291 480.431 250.408 474.819 256.31C451.361 216.806 391.639 216.336 359.148 247.367C338.671 272.366 335.919 305.948 342.021 336.018C314.112 286.181 359.398 210.984 416.598 205.852L416.598 205.862ZM441.677 164.247C518.945 158.775 527.728 284.68 506.98 236.924C475.34 168.989 365.33 190.677 441.677 164.247ZM426.332 8.10184C467.417 6.43125 476.69 69.3137 431.834 55.0485C423.451 39.1629 432.784 34.7013 439.857 51.3172C462.235 44.4348 446.669 20.7064 434.495 17.1251C384.007 7.96177 396.461 74.7656 424.601 92.3716C444.198 114.14 485.373 104.887 504.6 121.732C438.136 140.769 336.41 44.0847 426.342 8.10184L426.332 8.10184ZM552.897 381.065C615.679 394.749 522.296 435.864 499.828 412.386C453.681 396.811 536.871 382.925 552.897 381.065ZM344.773 27.0786C362.93 40.6734 350.945 81.8178 327.217 57.1093C328.217 36.682 338.97 48.4262 338.26 50.777C336.93 55.1786 326.446 58.7199 340.411 60.5205C358.998 39.6031 330.288 18.6556 310.56 36.602C284.431 110.618 404.354 88.7309 428.393 135.917C440.157 147.912 426.802 158.826 419.97 141.999C403.604 111.999 360.538 109.558 330.888 107.257C296.816 86.55 287.172 6.80139 344.763 27.0887L344.773 27.0786ZM819.022 416.288C853.822 421.789 827.476 468.576 812.602 476.969C800.413 483.841 744.622 468.226 770.036 456.301C773.076 453.311 780.879 440.246 784.067 439.356C792.935 465.325 838.231 464.705 824.096 432.974C817.084 417.238 813.179 416.748 819.022 416.297L819.022 416.288ZM725.239 260.572C793.512 332.868 698.058 426.421 648.411 346.012C721.327 397.341 752.055 315.982 725.239 260.572ZM699.099 255.15C700.47 275.817 711.853 296.115 709.133 317.292C699.119 343.962 658.384 334.278 655.954 308.619C675.861 306.778 692.327 269.515 699.109 255.15L699.099 255.15ZM276.078 511.441C317.043 515.443 247.358 550.695 264.354 596.732C264.905 599.382 271.117 611.237 263.524 605.165C217.478 590.079 253.281 532.198 276.078 511.441L276.078 511.441ZM170.591 306.068C207.894 321.974 109.439 293.163 83.8697 382.965C75.477 351.124 149.653 257.661 177.844 297.515C168.71 295.494 152.004 306.358 170.591 306.078L170.591 306.068ZM308.119 191.517C323.415 195.228 350.615 198.92 353.116 217.677C302.048 185.895 232.583 209.814 205.383 260.572C178.794 368.43 173.732 192.598 308.119 191.507L308.119 191.517ZM288.683 231.471C302.077 231.021 341.672 233.362 327.227 254.37C286.522 229.081 234.664 268.555 215.737 301.466C219.498 272.186 255.301 233.002 288.683 231.481L288.683 231.471ZM338.05 394.36C373.033 393.839 369.671 453.521 337.44 434.314C376.644 437.535 334.869 389.207 319.814 422.319C314.942 435.044 315.452 449.239 330.518 456.292C333.589 457.772 350.575 459.523 339.081 463.004C297.346 464.844 292.434 393.129 338.05 394.36L338.05 394.36ZM324.406 140.039C344.773 141.609 391.159 162.927 379.465 186.205C344.342 134.617 268.306 148.272 221.619 177.892C243.047 153.164 289.863 141.28 324.406 140.039L324.406 140.039ZM93.2135 555.577C109.649 556.837 120.613 588.419 99.9457 573.704C97.6247 576.074 95.3437 578.455 93.2135 580.946C105.928 597.062 102.026 585.078 109.309 587.228C110.61 590.41 101.756 592.84 98.8954 592.26C84.9 589.699 80.4585 566.961 97.0145 568.111C104.217 579.215 111.24 568.902 101.656 562.41C46.8967 559.068 109.109 644.238 129.316 567.661C145.191 588.609 117.082 617.639 93.2231 610.196C73.2061 602.914 58.1007 561.699 93.2231 555.577L93.2135 555.577ZM471.638 150.082C518.835 162.077 548.235 214.005 523.236 254.24C550.606 175.211 413.598 154.054 471.638 150.082L471.638 150.082ZM496.917 144.03C590.33 162.857 557.189 292.653 551.336 218.817C552.887 230.361 547.725 237.023 549.936 222.438C544.034 155.064 466.616 145.001 496.927 144.03L496.917 144.03ZM419.979 186.205C450.721 190.277 471.808 202.591 490.145 226.58C493.325 232.492 498.168 256.781 490.484 240.585C461.815 181.463 333.259 215.025 419.99 186.205L419.979 186.205ZM775.369 421.289C762.884 472.898 689.486 427.571 659.155 461.204C649.932 446.358 684.174 432.073 697.408 438.025C749.038 448.669 759.792 421.369 775.369 421.289L775.369 421.289ZM681.743 470.386C799.755 509.671 654.493 607.545 679.332 513.222C681.753 512.931 687.265 509.861 688.876 512.171C647.831 558.438 758.971 549.765 708.603 487.492C702.63 472.788 640.648 474.738 681.743 470.386ZM848.512 368.38C881.115 373.592 859.887 363.058 848.512 397.821C842.898 393.419 834.518 388.588 826.197 390.148C781.049 402.172 829.895 367.31 848.512 368.38L848.512 368.38ZM599.734 565.76C634.126 584.948 568.643 596.792 557.989 573.744C564.111 554.156 590.841 581.927 599.734 565.76ZM74.9667 407.574C68.6445 418.478 58.6409 450.52 43.9457 451.85C37.7134 452.41 19.5169 447.168 26.1894 440.236C42.4951 446.168 53.389 439.646 50.0278 425.611C46.6466 411.486 35.9428 413.747 53.0989 414.286C58.6309 414.456 71.3154 407.474 74.9667 407.574L74.9667 407.574ZM567.352 534.779C582.097 545.103 591.591 549.004 604.905 539.411C609.437 550.395 589.62 559.809 581.127 550.215C568.742 542.252 563.39 557.617 546.144 560.999C535 560.238 562.37 535.87 567.352 534.779L567.352 534.779ZM246.498 45.5752C270.127 47.906 272.377 94.3728 243.867 82.3281C235.184 71.3944 245.378 70.5941 250.519 79.5075C268.306 72.8049 257.011 55.2986 243.867 53.0679C214.436 65.9025 226.871 49.0664 246.498 45.5852L246.498 45.5752ZM163.558 359.507C220.768 377.834 153.205 367.61 135.248 375.653C124.744 366.409 154.355 361.808 163.558 359.507L163.558 359.507ZM659.155 419.779C684.534 430.833 674.05 428.962 657.014 441.476C655.963 437.095 651.712 421.229 659.155 419.779ZM260.093 497.456C278.499 504.509 260.963 514.182 255.901 524.526C253.2 522.285 256.841 517.934 257.532 515.373C258.992 511.421 256.971 498.687 260.082 497.456L260.093 497.456ZM56.8302 255.66C81.3793 260.942 74.957 275.027 55.6798 271.876C47.0468 270.465 49.7277 257.1 56.8302 255.66L56.8302 255.66Z"/>
	<path d="M693.337 516.883C687.835 518.374 687.745 522.535 690.796 525.906C695.838 524.586 696.118 519.914 693.337 516.883Z"/>
	<path d="M135.248 375.653L135.269 374.222L134.088 373.522C132.567 373.322 131.837 373.332 130.366 373.692C128.436 373.922 118.582 381.925 117.542 383.966L117.702 384.476C120.973 383.875 132.037 376.303 135.238 375.643L135.248 375.653Z"/>
	<path d="M31.6013 366.38C21.6977 368.42 34.1621 376.873 34.8124 377.683C47.3769 374.282 34.3922 368.17 31.6013 366.38Z"/>
	<path d="M448.76 120.672C447.389 120.642 446.169 120.712 444.808 120.862L444.509 121.332C445.829 123.103 459.944 132.026 462.184 132.426C465.195 132.956 473.598 129.905 478.731 129.925L479.281 129.925C481.031 129.925 484.042 129.225 484.172 127.604C483.142 126.924 473.689 125.794 471.748 125.744C468.697 127.915 450.96 122.223 448.74 120.682L448.76 120.672Z"/>
	<path d="M177.483 307.978C175.582 306.709 172.942 304.347 170.601 306.068L170.02 307.399C168.17 308.049 165.099 307.538 162.928 307.839C165.649 308.609 169.28 308.358 172.111 308.179C174.983 309.699 176.303 311.82 177.483 307.978L177.483 307.978Z"/>
	<path d="M503.89 213.835L502.709 214.195C500.989 217.297 505.02 221.778 506.45 224.639C508.711 229.15 510.442 242.125 512.783 243.116C514.003 241.675 515.043 240.144 516.104 238.624C515.333 229.931 511.422 220.187 503.89 213.835Z"/>
	<path d="M142.001 336.969C137.669 336.889 136.959 331.077 133.397 335.469L133.567 336.329C138.76 338.93 136.919 335.428 138.209 340.901C139.039 338.84 139.74 338.15 142.001 336.969L142.001 336.969Z"/>
</svg>
